<svg height="493pt" viewBox="0 -12 493.78 493" width="493pt" xmlns="http://www.w3.org/2000/svg"><path d="m380.210938 8.390625c45.460937.03125 85.792968 29.179687 100.085937 72.339844 14.292969 43.15625-.667969 90.617187-37.125 117.777343-36.453125 27.160157-86.210937 27.917969-123.472656 1.871094-37.265625-26.042968-53.65625-73.027344-40.679688-116.597656 13.351563-44.738281 54.5-75.398438 101.191407-75.390625zm0 0" fill="#00efd1"/><path d="m366.039062 407.332031v.109375c-.027343 30.234375-24.542968 54.730469-54.777343 54.730469h-.171875c-1.261719 0-2.519532-.050781-3.761719-.128906-28.726563-2.003907-51-25.910157-50.96875-54.710938v-35.429687h-183.597656v-.480469l1.9375-287.691406h204.171875l.148437.050781c-8.800781 29.570312-4.234375 61.507812 12.496094 87.429688 16.730469 25.921874 43.953125 43.234374 74.523437 47.390624zm-216.667968-222.761719c9.71875 0 17.597656-7.519531 17.597656-16.789062s-7.878906-16.800781-17.597656-16.800781c-9.722656 0-17.609375 7.523437-17.609375 16.800781 0 9.28125 7.878906 16.789062 17.609375 16.789062zm0 69.542969c9.71875 0 17.597656-7.519531 17.597656-16.800781s-7.878906-16.789062-17.597656-16.789062c-9.722656 0-17.609375 7.519531-17.609375 16.789062s7.878906 16.800781 17.609375 16.800781zm0 69.527344c9.71875 0 17.597656-7.507813 17.597656-16.789063s-7.878906-16.789062-17.597656-16.789062c-9.722656 0-17.609375 7.519531-17.609375 16.789062 0 9.269532 7.878906 16.789063 17.609375 16.789063zm0 0" fill="#fedb41"/><path d="m307.328125 462.042969-.007813.128906h-244.332031c-30.234375 0-54.75-24.496094-54.777343-54.730469v-35.539062h248.148437v35.429687c-.03125 28.800781 22.242187 52.707031 50.96875 54.710938zm0 0" fill="#00acea"/><path d="m166.96875 167.78125c0 9.269531-7.878906 16.789062-17.597656 16.789062-9.722656 0-17.609375-7.519531-17.609375-16.789062s7.878906-16.800781 17.609375-16.800781c9.730468 0 17.597656 7.523437 17.597656 16.800781zm0 0" fill="#00efd1"/><path d="m166.96875 237.3125c0 9.28125-7.878906 16.800781-17.597656 16.800781-9.722656 0-17.609375-7.519531-17.609375-16.800781s7.878906-16.789062 17.609375-16.789062c9.730468 0 17.597656 7.519531 17.597656 16.789062zm0 0" fill="#00efd1"/><path d="m166.96875 306.851562c0 9.28125-7.878906 16.789063-17.597656 16.789063-9.722656 0-17.609375-7.507813-17.609375-16.789063s7.878906-16.789062 17.609375-16.789062c9.730468 0 17.597656 7.519531 17.597656 16.789062zm0 0" fill="#00efd1"/><g fill="#083863"><path d="m378.800781 70.230469c.066407 0 .132813.011719.199219.011719.296875 0 .59375-.019532.890625-.054688 9.808594.089844 17.714844 8.058594 17.730469 17.863281 0 4.417969 3.582031 8 8 8 4.417968 0 8-3.582031 8-8-.023438-15.902343-11.089844-29.65625-26.621094-33.078125v-7.691406c0-4.417969-3.582031-8-8-8s-8 3.582031-8 8v8.039062c-16.421875 4.398438-27.042969 20.28125-24.828125 37.136719s16.578125 29.460938 33.578125 29.464844c9.871094 0 17.871094 8 17.871094 17.871094 0 9.867187-8 17.867187-17.871094 17.867187s-17.871094-8-17.871094-17.867187c0-4.421875-3.582031-8-8-8-4.417968 0-8 3.578125-8 8 .019532 15.328125 10.316406 28.738281 25.121094 32.71875v8.769531c0 4.417969 3.582031 8 8 8s8-3.582031 8-8v-8.410156c16.894531-3.699219 28.289062-19.535156 26.425781-36.726563-1.863281-17.195312-16.378906-30.226562-33.675781-30.222656-9.6875.015625-17.621094-7.695313-17.878906-17.378906-.257813-9.683594 7.25-17.808594 16.925781-18.3125zm0 0"/><path d="m380.210938.390625c-24.710938-.15625-48.78125 7.839844-68.488282 22.742187-17.460937 13.429688-30.789062 31.5-38.457031 52.148438h-198.566406c-4.398438 0-7.96875 3.964844-8 8.363281l-1.886719 280.636719h-56.601562c-4.417969 0-8.210938 3.199219-8.210938 7.621094v35.546875c0 33.628906 27 61.152343 60 62.652343v.179688h247v-.230469c2 .078125 2.898438.230469 4.089844.230469h.171875c34.648437-.089844 62.703125-28.1875 62.738281-62.839844v-180.070312c2 .109375 4.132812.179687 6.191406.179687 62.726563.007813 113.582032-50.839843 113.589844-113.570312.003906-62.726563-50.84375-113.582031-113.570312-113.589844zm-364.210938 407.050781v-27.160156h232v27.042969c0 18.488281 8.433594 34.957031 21.351562 46.957031h-206.363281c-25.867187-.058594-46.84375-20.972656-46.988281-46.839844zm295.199219 46.839844h-.109375c-1 0-2.238282-.089844-3.390625-.164062-24.550781-1.785157-43.589844-22.167969-43.699219-46.785157v-35.429687c.066406-2.042969-.71875-4.023438-2.164062-5.46875-1.449219-1.445313-3.433594-2.222656-5.476563-2.152344h-175.546875l1.832031-273h186.1875c-1.429687 7.488281-2.164062 15.09375-2.199219 22.714844 0 16.199218 3.460938 31.285156 9.710938 46.285156h-75.625c-4.417969 0-8 3.582031-8 8s3.582031 8 8 8h84.3125c16.644531 25.597656 42.988281 43.320312 72.96875 49.09375v182.058594c-.027344 25.84375-20.957031 46.792968-46.800781 46.847656zm69.011719-242.730469c-4.378907.003907-8.753907-.289062-13.09375-.875h-.011719c-48.160157-6.457031-84.476563-48.03125-84.476563-96.699219 0-53.894531 43.6875-97.582031 97.582032-97.582031 53.890624 0 97.578124 43.6875 97.578124 97.582031 0 53.890626-43.6875 97.578126-97.578124 97.578126zm0 0"/><path d="m149.371094 212.523438c-14.125 0-25.609375 11.121093-25.609375 24.789062s11.484375 24.800781 25.609375 24.800781c14.121094 0 25.597656-11.125 25.597656-24.800781s-11.484375-24.789062-25.597656-24.789062zm0 33.589843c-5.300782 0-9.609375-3.949219-9.609375-8.800781s4.308593-8.789062 9.609375-8.789062c5.296875 0 9.597656 3.941406 9.597656 8.789062s-4.304688 8.800781-9.597656 8.800781zm0 0"/><path d="m307.371094 229.28125h-106.652344c-4.417969 0-8 3.582031-8 8s3.582031 8 8 8h106.652344c4.417968 0 8-3.582031 8-8s-3.582032-8-8-8zm0 0"/><path d="m149.371094 142.980469c-14.125 0-25.609375 11.125-25.609375 24.800781s11.484375 24.789062 25.609375 24.789062c14.121094 0 25.597656-11.117187 25.597656-24.789062 0-13.667969-11.484375-24.800781-25.597656-24.800781zm0 33.589843c-5.300782 0-9.609375-3.941406-9.609375-8.789062s4.308593-8.800781 9.609375-8.800781c5.296875 0 9.597656 3.949219 9.597656 8.800781s-4.304688 8.789062-9.597656 8.789062zm0 0"/><path d="m149.371094 282.0625c-14.125 0-25.609375 11.121094-25.609375 24.789062 0 13.671876 11.484375 24.789063 25.609375 24.789063 14.121094 0 25.597656-11.121094 25.597656-24.789063 0-13.667968-11.484375-24.789062-25.597656-24.789062zm0 33.578125c-5.300782 0-9.609375-3.941406-9.609375-8.789063 0-4.847656 4.308593-8.789062 9.609375-8.789062 5.296875 0 9.597656 3.941406 9.597656 8.789062 0 4.847657-4.304688 8.789063-9.597656 8.789063zm0 0"/><path d="m307.371094 299.28125h-106.652344c-4.417969 0-8 3.582031-8 8s3.582031 8 8 8h106.652344c4.417968 0 8-3.582031 8-8s-3.582032-8-8-8zm0 0"/></g></svg>