<svg id="Layer_35" enable-background="new 0 0 64 64" height="512" viewBox="0 0 64 64" width="512" xmlns="http://www.w3.org/2000/svg"><path d="m14 10h48v44h-48z" fill="#e6e9ed"/><path d="m26 56h-14-1l-1.42-9.93.42 1.93h4 15l-1.5 6-.5 2z" fill="#cf9e76"/><path d="m9.25 43.72.32 2.28h-5.57c-1.1 0-2-.9-2-2 0-.55.22-1.05.59-1.41.36-.37.86-.59 1.41-.59h3.27c.99 0 1.83.73 1.98 1.72z" fill="#ccd1d9"/><circle cx="16" cy="30" fill="#ffeaa7" r="11"/><path d="m14 40.82c-2.29-.42-4.33-1.55-5.88-3.15.32-1.89 1.3-3.56 2.7-4.76 1.39-1.19 3.2-1.91 5.18-1.91 3.96 0 7.24 2.88 7.88 6.67-1.99 2.06-4.78 3.33-7.88 3.33-.68 0-1.35-.06-2-.18z" fill="#4fc1e9"/><circle cx="16" cy="27" fill="#f0d0b4" r="4"/><g fill="#ff826e"><path d="m57 40h-10-11l-6 4 6 4h11 11v-8z"/><path d="m47 28h-11l-6 4 6 4h11 11v-8z"/><path d="m57 16h-10-11l-6 4 6 4h11 11v-8z"/></g><path d="m14 2h48v8h-48z" fill="#b4dd7f"/><circle cx="12" cy="59" fill="#838f9b" r="3"/><circle cx="26" cy="59" fill="#838f9b" r="3"/><path d="m63 55v-54h-50v17.395c-5.167 1.337-9 6.026-9 11.605s3.833 10.268 9 11.605v5.395h-2.275l-.489-3.424c-.211-1.469-1.487-2.576-2.97-2.576h-3.266c-1.654 0-3 1.346-3 3s1.346 3 3 3h4.704l1.228 8.593c-1.153.703-1.932 1.961-1.932 3.407 0 2.206 1.794 4 4 4s4-1.794 4-4c0-.732-.212-1.409-.556-2h7.113c-.345.591-.557 1.268-.557 2 0 2.206 1.794 4 4 4s4-1.794 4-4c0-1.423-.752-2.667-1.875-3.376l.156-.624zm-59-10c-.552 0-1-.449-1-1s.448-1 1-1h3.266c.494 0 .92.369.989.859l.163 1.141zm57-42v6h-46v-6zm-45 17c5.514 0 10 4.486 10 10 0 2.057-.626 3.97-1.695 5.562-.923-2.25-2.708-4.005-4.925-4.901.989-.914 1.62-2.211 1.62-3.661 0-2.757-2.243-5-5-5s-5 2.243-5 5c0 1.45.631 2.747 1.62 3.661-2.218.896-4.002 2.651-4.925 4.901-1.069-1.591-1.695-3.505-1.695-5.562 0-5.514 4.486-10 10-10zm-3 7c0-1.654 1.346-3 3-3s3 1.346 3 3-1.346 3-3 3-3-1.346-3-3zm9.785 10.325c-1.785 1.654-4.165 2.675-6.785 2.675s-5-1.021-6.785-2.675c.76-3.114 3.533-5.325 6.785-5.325s6.025 2.211 6.785 5.325zm-7.785 4.624c.331.028.662.051 1 .051 6.617 0 12-5.383 12-12s-5.383-12-12-12c-.338 0-.669.023-1 .051v-7.051h46v42h-32.219l1.5-6h-15.281zm-1 17.051c0 1.103-.897 2-2 2s-2-.897-2-2 .897-2 2-2 2 .897 2 2zm12 2c-1.103 0-2-.897-2-2s.897-2 2-2 2 .897 2 2-.897 2-2 2zm-14.133-6-.857-6h16.709l-1.5 6z"/><path d="m17 5h2v2h-2z"/><path d="m21 5h2v2h-2z"/><path d="m25 5h2v2h-2z"/><path d="m59 25v-9.586l.707-.707-1.414-1.414-1.707 1.707h-20.889l-7.5 5 7.5 5zm-7-2.586 5-5v5.586h-9v-6h6.586l-2.586 2.586-1.293-1.293-1.414 1.414zm-15.697-5.414h9.697v6h-9.697l-4.5-3z"/><path d="m42 19h2v2h-2z"/><path d="m38 19h2v2h-2z"/><path d="m59 37v-10h-23.303l-7.5 5 7.5 5zm-2-2h-9v-6h9zm-20.697-6h9.697v6h-9.697l-4.5-3z"/><path d="m42 31h2v2h-2z"/><path d="m38 31h2v2h-2z"/><path d="m59 49v-9.586l.707-.707-1.414-1.414-1.707 1.707h-20.889l-7.5 5 7.5 5zm-7-2.586 5-5v5.586h-9v-6h6.586l-2.586 2.586-1.293-1.293-1.414 1.414zm-15.697-5.414h9.697v6h-9.697l-4.5-3z"/><path d="m42 43h2v2h-2z"/><path d="m38 43h2v2h-2z"/></svg>