<svg id="Capa_1" enable-background="new 0 0 512 512" height="512" viewBox="0 0 512 512" width="512" xmlns="http://www.w3.org/2000/svg"><g><path d="m7.502 92.921h372.747v372.747h-372.747z" fill="#edba94"/><path d="m7.502 92.921h20v372.747h-20z" fill="#e5a87f"/><path d="m232.454 195.795-38.578-17.698-38.578 17.698v-102.874h77.156z" fill="#fd6930"/><path d="m124.867 367.956-39.651-39.651-39.651 39.651h24.12v67.338h31.062v-67.338z" fill="#f1f6f7"/><path d="m318.125 61.859h186.374v248.498h-186.374z" fill="#9dc6fb"/><path d="m349.187 61.859h124.249v217.436h-124.249z" fill="#f1f6f7"/><path d="m380.25 46.328h61.644v31.062h-61.644z" fill="#ffe17d"/><path d="m256 403.544h93.187v31.75h-93.187z" fill="#e5a87f"/><g><g><path d="m177.53 458.172h-162.53v-357.75h48.85c4.142 0 7.5-3.358 7.5-7.5s-3.358-7.5-7.5-7.5h-56.35c-4.142 0-7.5 3.358-7.5 7.5v372.75c0 4.142 3.358 7.5 7.5 7.5h170.03c4.142 0 7.5-3.358 7.5-7.5s-3.358-7.5-7.5-7.5z"/><path d="m45.564 375.456h16.62v59.838c0 4.142 3.358 7.5 7.5 7.5h31.062c4.142 0 7.5-3.358 7.5-7.5v-59.838h16.62c6.8.11 11.467-6.556 5.303-12.803l-39.651-39.651c-2.929-2.93-7.678-2.929-10.606 0l-39.651 39.651c-5.928 7.913-2.099 12.913 5.303 12.803zm39.652-36.545 21.544 21.544c-5.31-1.041-13.514.493-13.514 7.5v59.838h-16.061v-59.838c0-7.007-8.204-8.541-13.513-7.5z"/><path d="m504.5 54.362h-55.106v-8.035c0-4.142-3.357-7.5-7.5-7.5h-61.645c-4.143 0-7.5 3.358-7.5 7.5v8.035h-54.629c-4.143 0-7.5 3.358-7.5 7.5v23.56h-214.08c-4.142 0-7.5 3.358-7.5 7.5s3.358 7.5 7.5 7.5h51.258v95.372c1.058 6.145 4.601 8.417 10.627 6.817l35.45-16.263 35.45 16.263c4.534 2.079 10.627-1.265 10.627-6.817v-95.372h70.667v116.63c0 4.142 3.357 7.5 7.5 7.5s7.5-3.358 7.5-7.5v-147.69h16.07v209.93c0 4.142 3.357 7.5 7.5 7.5h124.25c4.143 0 7.5-3.358 7.5-7.5v-209.93h16.061v233.49h-171.38v-53.12c0-4.142-3.357-7.5-7.5-7.5s-7.5 3.358-7.5 7.5v60.62c0 4.142 3.357 7.5 7.5 7.5h54.63v140.32h-162.53c-4.142 0-7.5 3.358-7.5 7.5s3.358 7.5 7.5 7.5h170.03c4.143 0 7.5-3.358 7.5-7.5v-147.82h116.75c4.143 0 7.5-3.358 7.5-7.5v-248.49c0-4.142-3.357-7.5-7.5-7.5zm-279.546 129.74-27.95-12.822c-2.085-.911-4.17-.911-6.255 0l-27.95 12.822v-83.68h62.155zm209.44-130.274v16.062h-46.645v-16.062zm31.546 217.964h-109.25v-202.43h16.059v8.028c0 4.142 3.357 7.5 7.5 7.5h61.645c4.143 0 7.5-3.358 7.5-7.5v-8.028h16.547v202.43z"/><path d="m442.374 100.952h-37.04c-4.143 0-7.5 3.358-7.5 7.5s3.357 7.5 7.5 7.5h37.04c4.143 0 7.5-3.358 7.5-7.5s-3.357-7.5-7.5-7.5z"/><path d="m442.374 132.015h-37.04c-4.143 0-7.5 3.358-7.5 7.5s3.357 7.5 7.5 7.5h37.04c4.143 0 7.5-3.358 7.5-7.5s-3.357-7.5-7.5-7.5z"/><path d="m442.374 163.077h-37.04c-4.143 0-7.5 3.358-7.5 7.5s3.357 7.5 7.5 7.5h37.04c4.143 0 7.5-3.358 7.5-7.5s-3.357-7.5-7.5-7.5z"/><path d="m442.374 194.139h-37.04c-4.143 0-7.5 3.358-7.5 7.5s3.357 7.5 7.5 7.5h37.04c4.143 0 7.5-3.358 7.5-7.5s-3.357-7.5-7.5-7.5z"/><path d="m442.374 225.201h-37.04c-4.143 0-7.5 3.358-7.5 7.5s3.357 7.5 7.5 7.5h37.04c4.143 0 7.5-3.358 7.5-7.5s-3.357-7.5-7.5-7.5z"/><path d="m248.5 435.294c0 4.142 3.358 7.5 7.5 7.5h93.187c4.143 0 7.5-3.358 7.5-7.5v-31.75c0-4.142-3.357-7.5-7.5-7.5h-93.187c-4.142 0-7.5 3.358-7.5 7.5zm15-24.251h78.187v16.75h-78.187z"/><path d="m256 379.969h93.188c4.143 0 7.5-3.358 7.5-7.5s-3.357-7.5-7.5-7.5h-93.188c-4.142 0-7.5 3.358-7.5 7.5s3.358 7.5 7.5 7.5z"/></g><g><path d="m380.09 240.202c-4.142 0-7.5-3.358-7.5-7.5 0-4.142 3.358-7.5 7.5-7.5 4.142 0 7.5 3.358 7.5 7.5 0 4.142-3.358 7.5-7.5 7.5z"/><path d="m380.09 209.139c-4.142 0-7.5-3.358-7.5-7.5 0-4.142 3.358-7.5 7.5-7.5 4.142 0 7.5 3.358 7.5 7.5 0 4.142-3.358 7.5-7.5 7.5z"/><path d="m380.09 178.077c-4.142 0-7.5-3.358-7.5-7.5 0-4.142 3.358-7.5 7.5-7.5 4.142 0 7.5 3.358 7.5 7.5 0 4.142-3.358 7.5-7.5 7.5z"/><path d="m380.09 147.016c-4.142 0-7.5-3.358-7.5-7.5 0-4.142 3.358-7.5 7.5-7.5 4.142 0 7.5 3.358 7.5 7.5 0 4.142-3.358 7.5-7.5 7.5z"/><path d="m380.09 115.952c-4.142 0-7.5-3.358-7.5-7.5 0-4.142 3.358-7.5 7.5-7.5 4.142 0 7.5 3.358 7.5 7.5 0 4.142-3.358 7.5-7.5 7.5z"/></g></g></g></svg>