<?xml version="1.0" encoding="iso-8859-1"?>
<!-- Generator: Adobe Illustrator 19.0.0, SVG Export Plug-In . SVG Version: 6.00 Build 0)  -->
<svg version="1.1" id="Capa_1" xmlns="http://www.w3.org/2000/svg" xmlns:xlink="http://www.w3.org/1999/xlink" x="0px" y="0px"
	 viewBox="0 0 512.001 512.001" style="enable-background:new 0 0 512.001 512.001;" xml:space="preserve">
<rect x="409.593" y="170.667" style="fill:#FFD24A;" width="93.867" height="196.267"/>
<path style="fill:#F5D0C7;" d="M196.26,386.987c-9.899-9.301-21.077-19.797-32.341-30.464
	c-34.731-32.768-70.059-66.389-70.059-66.389l42.667-42.667l59.733,58.965l59.733,58.965v1.536H401.06l42.667,42.667l-42.667,42.667
	l-34.133-34.133H230.393C229.71,418.134,215.374,404.907,196.26,386.987z"/>
<polygon style="fill:#EC9821;" points="409.593,170.667 409.593,366.934 401.06,366.934 349.86,366.934 349.86,170.667 "/>
<g>
	<polygon style="fill:#FFD24A;" points="349.86,170.667 349.86,366.934 257.529,366.934 255.993,365.398 255.993,170.667 	"/>
	<rect x="162.126" y="435.201" style="fill:#FFD24A;" width="34.133" height="68.267"/>
</g>
<g>
	<path style="fill:#034285;" d="M196.26,386.987v48.213h-34.133v68.267h-102.4v-42.667l102.4-68.267v-34.133l1.792-1.877
		C175.182,367.19,186.361,377.686,196.26,386.987z"/>
	<path style="fill:#034285;" d="M196.26,281.601v24.832l-59.733-58.965h-76.8v-34.133h68.267
		C165.702,213.334,196.26,243.9,196.26,281.601z"/>
</g>
<path style="fill:#F5D0C7;" d="M196.26,68.267v50.005c-0.333,33.946-28.092,61.21-62.037,60.928H59.726V68.267H196.26z"/>
<path style="fill:#EC9821;" d="M196.26,59.734v8.533H59.726V57.259c-0.034-1.997,0.111-4.002,0.427-5.973
	C63.438,26.659,84.55,8.329,109.39,8.534h35.669C173.339,8.534,196.26,31.454,196.26,59.734z"/>
<path style="fill:#FFD24A;" d="M163.918,356.523l-1.792,1.877v34.133l-102.4,68.267V247.467h76.8L93.86,290.134
	C93.86,290.134,129.188,323.755,163.918,356.523z"/>
<path style="fill:#EC9821;" d="M59.726,51.201l0.427,0.085c-0.316,1.971-0.461,3.977-0.427,5.973v9.557h-51.2L59.726,51.201z"/>
<g>
	<rect x="435.193" y="196.267" style="fill:#FFF3CF;" width="42.667" height="17.067"/>
	<rect x="281.593" y="324.267" style="fill:#FFF3CF;" width="17.067" height="17.067"/>
</g>
<path d="M59.726,187.734h74.496c38.647,0.265,70.221-30.814,70.571-69.461V59.734C204.759,26.761,178.033,0.035,145.06,0H109.39
	C82.502-0.11,59.052,18.27,52.738,44.417L6.035,58.659c-4.506,1.382-7.031,6.153-5.649,10.658c1.101,3.584,4.403,6.025,8.141,6.033
	h42.667v103.851C51.193,183.911,55.016,187.734,59.726,187.734z M134.222,170.667H68.26V76.801h119.467v41.472
	C187.394,147.499,163.458,170.94,134.222,170.667z M68.558,52.745c0-0.137,0-0.273,0.06-0.41
	c2.773-20.343,20.241-35.456,40.772-35.268h35.669c23.552,0.026,42.641,19.115,42.667,42.667H68.26v-2.475
	C68.234,55.749,68.337,54.238,68.558,52.745z"/>
<path d="M449.759,403.567l-28.1-28.1h81.801c4.71,0,8.533-3.823,8.533-8.533V170.667c0-4.71-3.823-8.533-8.533-8.533H255.993
	c-4.71,0-8.533,3.823-8.533,8.533v174.336l-42.667-42.129v-21.274c-0.051-42.394-34.406-76.749-76.8-76.8H59.726
	c-4.71,0-8.533,3.823-8.533,8.533v290.133c0,4.71,3.823,8.533,8.533,8.533H196.26c4.71,0,8.533-3.823,8.533-8.533v-96.802
	c21.333,19.917,21.99,20.002,25.6,20.002h133.001l31.633,31.633c3.328,3.328,8.738,3.328,12.066,0l42.667-42.667
	C453.096,412.306,453.096,406.904,449.759,403.567z M494.926,358.401h-76.8v-179.2h76.8V358.401z M358.393,179.201h42.667v179.2
	h-42.667V179.201z M264.526,179.201h76.8v179.2h-76.8V179.201z M127.993,221.867c32.973,0.034,59.699,26.761,59.733,59.733v4.42
	L142.5,241.391c-1.587-1.57-3.729-2.458-5.973-2.458H68.26v-17.067H127.993z M87.98,296.32c0,0,32.375,30.814,65.613,62.191v29.457
	L68.26,444.86v-188.86h47.667l-28.1,28.1c-3.337,3.328-3.337,8.738,0,12.066C87.878,296.218,87.929,296.269,87.98,296.32z
	 M68.26,465.366l98.603-65.707c2.381-1.587,3.806-4.267,3.797-7.125v-17.92c5.854,5.513,11.605,10.914,16.981,15.966l0.085,0.085
	v36.002h-25.6c-4.71,0-8.533,3.823-8.533,8.533v59.733H68.26C68.26,494.934,68.26,465.366,68.26,465.366z M170.66,494.934v-51.2
	h17.067v51.2H170.66z M401.06,440.201l-28.1-28.1c-1.596-1.596-3.763-2.5-6.033-2.5H233.346
	c-3.046-2.645-10.914-9.779-31.241-28.834l-2.782-2.62c-9.182-8.619-19.328-18.142-29.551-27.827
	c-25.83-24.371-51.994-49.22-63.693-60.339l30.447-30.49l111.445,110.003c1.075,3.533,4.326,5.956,8.021,5.973h141.534
	l34.133,34.133L401.06,440.201z"/>
<rect x="435.193" y="196.267" width="42.667" height="17.067"/>
<rect x="281.593" y="324.267" width="17.067" height="17.067"/>
<g>
</g>
<g>
</g>
<g>
</g>
<g>
</g>
<g>
</g>
<g>
</g>
<g>
</g>
<g>
</g>
<g>
</g>
<g>
</g>
<g>
</g>
<g>
</g>
<g>
</g>
<g>
</g>
<g>
</g>
</svg>
