<svg id="Capa_1" enable-background="new 0 0 512.001 512.001" height="512" viewBox="0 0 512.001 512.001" width="512" xmlns="http://www.w3.org/2000/svg"><g><g><path clip-rule="evenodd" d="m174.047 175.203h12.926c17.291 0 31.436 14.173 31.436 31.465l8.277 41.385-8.277 36.709h-121.549v-78.094c0-17.292 14.145-31.465 31.436-31.465z" fill="#a5cdff" fill-rule="evenodd"/><path clip-rule="evenodd" d="m295.257 175.203h13.266c17.292 0 31.437 14.173 31.437 31.465l11.65 44.021-11.65 124.753h-121.55v-168.774c0-17.292 14.145-31.465 31.436-31.465z" fill="#ff6978" fill-rule="evenodd"/><path clip-rule="evenodd" d="m416.807 175.203h13.266c17.292 0 31.436 14.173 31.436 31.465v115.965h-121.549v-115.965c0-17.292 14.145-31.465 31.436-31.465z" fill="#ccf49f" fill-rule="evenodd"/><path clip-rule="evenodd" d="m437.244 206.668v115.965h24.265v-115.965c0-17.292-14.145-31.465-31.436-31.465h-13.266-10.999c17.292 0 31.436 14.173 31.436 31.465z" fill="#b3e59f" fill-rule="evenodd"/><path clip-rule="evenodd" d="m315.695 206.668v115.965h24.265v-115.965c0-17.292-14.145-31.465-31.437-31.465h-13.266-10.998c17.291 0 31.436 14.173 31.436 31.465z" fill="#eb616f" fill-rule="evenodd"/><path clip-rule="evenodd" d="m194.145 206.668v115.965h24.265v-115.965c0-17.292-14.145-31.465-31.436-31.465h-13.266-10.999c17.291 0 31.436 14.173 31.436 31.465z" fill="#8abfff" fill-rule="evenodd"/><path d="m305.717 232.547c21.288 0 38.693 17.433 38.693 38.722 0 16.355-10.375 30.982-25.739 36.481 11.537-1.871 22.592-5.074 33.165-10.403l98.532-43.965c19.502-8.703 42.378.057 51.081 19.559 8.702 19.502-2.239 38.551-19.56 51.052l-109.417 79.2c-27.893 20.183-51.846 17.121-77.074 14.825l-156.387-14.316c-22.195-2.04-42.378-19.502-56.608-34.129v-92.381c6.718-32.428 68.4-43.738 89.348-44.645z" fill="#ffcbbe"/><path d="m496.602 264.863c1.899 2.438 3.543 5.13 4.848 8.078 8.702 19.502-2.239 38.551-19.56 51.052l-109.417 79.2c-27.893 20.183-51.846 17.121-77.074 14.825l-156.387-14.316c-22.195-2.04-42.378-19.502-56.608-34.129v-16.383c13.38 12.473 30.388 24.718 48.756 26.419l156.388 14.314c25.228 2.297 49.181 5.357 77.074-14.825l109.446-79.2c12.499-9.042 21.655-21.486 22.534-35.035z" fill="#f7beaf"/><g clip-rule="evenodd" fill-rule="evenodd"><path d="m73.219 244.963h-34.072c-17.404 0-31.634 14.513-31.634 32.229v92.381c0 17.717 14.23 32.202 31.634 32.202h34.073c17.405 0 31.663-14.485 31.663-32.202v-92.381c-.001-17.716-14.259-32.229-31.664-32.229z" fill="#477b9e"/><path d="m212.939 292.699c-4.139 0-7.512 3.401-7.512 7.512 0 4.139 3.374 7.54 7.512 7.54h105.732c15.393-5.527 25.739-20.183 25.739-36.481 0-16.611-10.743-31.465-26.532-36.737-.708-.255-1.446-.454-2.183-.652-3.203-.879-6.548-1.332-9.978-1.332h-24.293c21.345 0 38.721 17.461 38.721 38.722 0 4.223-.369 8.475-2.013 12.302-2.976 6.917-4.535 9.128-14.825 9.128-30.132-.002-60.236-.002-90.368-.002z" fill="#f7beaf"/><path d="m434.069 146.686c0 18.34-14.995 33.335-33.335 33.335s-33.336-14.995-33.336-33.335v-35.717c0-10.262 8.391-18.651 18.652-18.651h29.367c10.261 0 18.652 8.39 18.652 18.651z" fill="#c68b87"/><path d="m190.97 146.686c0 18.34-14.995 33.335-33.335 33.335s-33.336-14.995-33.336-33.335c0-11.905 0-23.812 0-35.717 0-10.262 8.391-18.651 18.652-18.651h43.059c3.401 0 4.96 1.955 4.96 4.96z" fill="#ffcbbe"/><path d="m367.398 110.969v21.912l22.791-11.169c3.089-1.502 6.066-1.643 9.156-.595l34.724 11.764v-21.912c0-10.262-8.391-18.651-18.652-18.651h-29.367c-10.261 0-18.652 8.39-18.652 18.651z" fill="#477b9e"/><path d="m124.299 110.969v10.771h66.671v-24.462c0-3.005-1.559-4.96-4.96-4.96h-43.059c-10.261 0-18.652 8.39-18.652 18.651z" fill="#ffe5a0"/><path d="m312.52 146.686c0 18.34-14.996 33.335-33.335 33.335-18.34 0-33.336-14.995-33.336-33.335v-35.717c0-10.262 8.391-18.651 18.652-18.651h29.367c10.261 0 18.652 8.39 18.652 18.651z" fill="#ffcbbe"/><path d="m245.849 110.969v12.982c9.411 3.487 17.235.539 21.77-2.013 3.515-2.012 4.082-2.381 7.568.652 15.987 14.003 37.332 6.236 37.332 6.236v-17.858c0-10.262-8.391-18.651-18.652-18.651h-29.367c-10.26.001-18.651 8.391-18.651 18.652z" fill="#c68b87"/><path d="m166.706 146.686c0 12.047-6.491 22.677-16.157 28.517-1.588.992-3.288 1.814-5.046 2.523 3.77 1.474 7.852 2.296 12.132 2.296 18.142 0 33.335-14.825 33.335-33.335v-24.945h-24.265v24.944z" fill="#f7beaf"/><path d="m166.706 97.278v24.463h24.265v-24.463c0-3.005-1.559-4.96-4.96-4.96h-24.293c3.429 0 4.988 1.955 4.988 4.96z" fill="#f2ce7e"/><path d="m288.255 146.686c0 12.047-6.491 22.677-16.158 28.517-1.587.992-3.288 1.814-5.045 2.523 3.77 1.474 7.852 2.296 12.132 2.296 18.142 0 33.335-14.825 33.335-33.335v-17.858s-11.707 4.252-24.265.794v17.063z" fill="#f7beaf"/><path d="m269.604 92.318c10.261 0 18.652 8.39 18.652 18.651v18.652c12.558 3.458 24.265-.794 24.265-.794v-17.858c0-10.262-8.391-18.651-18.652-18.651z" fill="#bd7d79"/><path d="m409.805 146.686c0 12.047-6.491 22.677-16.157 28.517-1.587.992-3.288 1.814-5.046 2.523 3.771 1.474 7.852 2.296 12.133 2.296 18.142 0 33.335-14.825 33.335-33.335v-13.805l-24.265-8.221z" fill="#bd7d79"/><path d="m391.153 92.318c10.262 0 18.652 8.39 18.652 18.651v13.691l24.265 8.221v-21.912c0-10.262-8.391-18.651-18.652-18.651z" fill="#365e7d"/><path d="m80.618 369.574c0 17.717-14.258 32.202-31.663 32.202h24.265c11.508 0 21.657-6.35 27.184-15.761 2.948-4.989 4.479-10.658 4.479-16.441v-92.381c0-7.88-2.835-15.449-8.022-21.373-5.812-6.661-14.259-10.856-23.641-10.856h-24.265c17.405 0 31.663 14.513 31.663 32.229z" fill="#365e7d"/></g></g><path d="m104.344 242.553c4.62-2.438 9.581-4.592 14.626-6.463v-17.319c0-4.139 3.345-7.512 7.483-7.512 4.139 0 7.512 3.373 7.512 7.512v12.558c14.882-3.997 29.169-5.896 37.445-6.236 3.26-.085 6.605-.028 9.893-.028v-6.293c0-4.139 3.345-7.512 7.483-7.512 4.167 0 7.512 3.373 7.512 7.512v6.293h14.599v-18.396c0-6.577-2.693-12.558-7.03-16.924-4.337-4.337-10.318-7.029-16.895-7.029h-10.177c-5.726 3.061-12.246 4.818-19.162 4.818s-13.464-1.757-19.191-4.818h-10.148c-6.577 0-12.558 2.692-16.895 7.029-4.365 4.338-7.058 10.347-7.058 16.924v35.884zm121.549-17.489h14.627v-6.293c0-4.139 3.345-7.512 7.483-7.512 4.167 0 7.512 3.373 7.512 7.512v6.293h47.338v-6.293c0-4.139 3.345-7.512 7.512-7.512 4.138 0 7.483 3.373 7.483 7.512v7.908c5.301 1.475 10.233 3.855 14.626 6.974v-26.985c0-6.577-2.721-12.558-7.058-16.924-4.337-4.337-10.318-7.029-16.895-7.029h-10.176c-5.726 3.061-12.246 4.818-19.162 4.818s-13.436-1.757-19.162-4.818h-10.177c-6.576 0-12.557 2.692-16.895 7.029-4.337 4.338-7.058 10.347-7.058 16.924v18.396zm121.578 26.476c2.835 5.981 4.45 12.671 4.45 19.729 0 7.086-1.644 13.861-4.592 19.983 4.763-2.381 9.865-4.479 14.74-6.633v-65.849c0-4.139 3.345-7.512 7.512-7.512 4.139 0 7.484 3.373 7.484 7.512v59.131l47.338-21.118v-38.013c0-4.139 3.373-7.512 7.512-7.512s7.483 3.373 7.483 7.512v31.322l7.938-3.543c2.183-.964 4.422-1.758 6.69-2.381v-37.502c0-6.577-2.693-12.558-7.058-16.924-4.337-4.337-10.318-7.029-16.895-7.029h-10.148c-5.726 3.061-12.274 4.818-19.19 4.818-6.917 0-13.436-1.757-19.163-4.818h-10.176c-6.576 0-12.558 2.692-16.895 7.029-4.337 4.338-7.03 10.347-7.03 16.924zm121.55-8.93c4.677.312 9.27 1.305 13.607 2.977 11.027 4.224 20.438 12.643 25.654 24.293 4.961 11.141 4.678 22.11.822 32.202-4.167 10.856-12.501 20.522-22.819 27.978l-40.507 29.31c-3.345 2.438-8.022 1.7-10.46-1.673-2.41-3.345-1.672-8.021 1.672-10.46l40.507-29.31c8.079-5.84 14.542-13.182 17.604-21.176 2.494-6.548 2.692-13.634-.482-20.777-3.515-7.852-9.865-13.55-17.32-16.385-7.483-2.862-16.016-2.891-23.868.624l-98.277 43.853c-5.471 2.749-10.913 5.357-16.837 7.426-5.925 2.041-13.352 3.742-19.645 3.742h-109.815c-4.139 0-7.483-3.345-7.483-7.483s3.345-7.512 7.483-7.512h108.51c5.669-2.296 10.432-6.151 13.833-10.999 3.628-5.13 5.726-11.366 5.726-17.971 0-8.562-3.515-16.385-9.184-22.025-5.669-5.67-13.465-9.185-22.054-9.185h-133.795c-10.261 0-26.164 3.486-36.028 6.293-9.921 2.778-20.041 6.605-28.403 11.65 3.118 5.697 4.904 12.245 4.904 19.19v28.63c0 4.139-3.345 7.512-7.483 7.512-4.139 0-7.512-3.373-7.512-7.512v-28.63c0-13.322-10.573-24.718-24.151-24.718h-34.073c-13.521 0-24.151 11.339-24.151 24.718v92.381c0 6.832 2.75 13.012 7.143 17.49 4.366 4.45 10.375 7.228 17.008 7.228h34.073c6.633 0 12.671-2.778 17.036-7.228 4.564-4.648 7.115-10.941 7.115-17.49v-28.658c0-4.139 3.374-7.483 7.512-7.483s7.483 3.345 7.483 7.483v28.658c0 4.961-.907 9.723-2.58 14.117 3.94 2.777 7.994 5.272 12.189 7.314 5.754 2.777 11.679 4.705 17.688 5.243l159.081 14.57c22.819 2.126 44.702 4.139 69.335-13.691l40.507-29.31c3.345-2.41 8.022-1.673 10.46 1.672 2.409 3.345 1.672 8.022-1.672 10.46l-40.507 29.311c-29.168 21.118-53.773 18.822-79.483 16.44l-159.053-14.569c-7.994-.709-15.648-3.146-22.847-6.662-4.734-2.268-9.241-4.988-13.55-7.993-7.398 8.107-17.716 12.812-28.715 12.812h-34.072c-10.772 0-20.579-4.507-27.666-11.735-7.087-7.2-11.481-17.092-11.481-27.978v-92.381c0-21.6 17.405-39.713 39.147-39.713h34.073c5.754 0 11.197 1.275 16.129 3.543v-34.355c0-10.716 4.394-20.467 11.424-27.525 5.868-5.839 13.549-9.864 22.11-11.055-3.855-6.236-6.095-13.578-6.095-21.401v-24.945-10.771c0-7.2 2.948-13.748 7.682-18.481 4.733-4.734 11.282-7.683 18.482-7.683h48.019c4.139 0 7.483 3.374 7.483 7.513v29.423 24.945c0 7.823-2.211 15.165-6.094 21.401 8.589 1.19 16.271 5.216 22.11 11.055 1.417 1.418 2.75 2.977 3.94 4.593 1.19-1.616 2.495-3.175 3.94-4.593 5.84-5.839 13.521-9.864 22.082-11.055-3.855-6.236-6.094-13.578-6.094-21.401v-35.717c0-7.2 2.948-13.748 7.682-18.481 4.734-4.734 11.282-7.683 18.482-7.683h29.367c7.2 0 13.748 2.948 18.481 7.683 4.734 4.733 7.682 11.281 7.682 18.481v35.717c0 7.823-2.239 15.165-6.094 21.401 8.561 1.19 16.242 5.216 22.082 11.055 1.446 1.418 2.749 2.977 3.94 4.593 1.19-1.616 2.522-3.175 3.94-4.593 5.839-5.839 13.522-9.864 22.11-11.055-3.884-6.236-6.095-13.578-6.095-21.401v-35.717c0-7.2 2.92-13.748 7.682-18.481 4.734-4.734 11.253-7.683 18.454-7.683h29.367c7.2 0 13.748 2.948 18.482 7.683 4.734 4.733 7.682 11.281 7.682 18.481v35.717c0 7.823-2.239 15.165-6.094 21.401 8.561 1.19 16.243 5.216 22.11 11.055 7.03 7.059 11.423 16.81 11.423 27.525zm-42.435-104.371-31.436-10.63-20.239 9.921v9.156c0 7.087 2.891 13.55 7.597 18.227 4.677 4.706 11.14 7.597 18.227 7.597 7.115 0 13.549-2.891 18.255-7.597 4.677-4.677 7.597-11.14 7.597-18.227v-8.447zm-51.675-17.349 16.016-7.852c1.786-1.021 4.025-1.304 6.122-.596l29.537 10.007v-11.48c0-3.062-1.275-5.839-3.288-7.88-2.041-2.013-4.819-3.289-7.88-3.289h-29.367c-3.033 0-5.839 1.276-7.852 3.289-2.041 2.041-3.288 4.818-3.288 7.88zm-243.128-6.661h51.675v-14.429h-40.507c-3.061 0-5.839 1.276-7.88 3.289-2.013 2.041-3.288 4.818-3.288 7.88zm51.676 14.995h-51.675v17.462c0 7.087 2.919 13.55 7.597 18.227 4.706 4.706 11.14 7.597 18.255 7.597 7.087 0 13.55-2.891 18.227-7.597 4.706-4.677 7.597-11.14 7.597-18.227v-17.462zm121.549 8.817c-9.014 1.049-22.621.425-34.214-9.354-4.139 2.268-10.176 4.592-17.433 4.309v13.691c0 7.087 2.891 13.55 7.597 18.227 4.677 4.706 11.14 7.597 18.227 7.597 7.086 0 13.55-2.891 18.227-7.597 4.706-4.677 7.597-11.14 7.597-18.227v-8.646zm-51.647-20.013c4.762.368 9.865-1.446 13.408-4.593 3.118-2.721 7.852-2.381 10.545.737 8.844 10.177 20.977 9.95 27.695 8.815v-12.019c0-3.062-1.247-5.839-3.26-7.88-2.041-2.013-4.819-3.289-7.88-3.289h-29.367c-3.061 0-5.839 1.276-7.88 3.289-2.012 2.041-3.26 4.818-3.26 7.88v7.06z"/></g></svg>