<svg id="Capa_1" enable-background="new 0 0 512 512" height="512" viewBox="0 0 512 512" width="512" xmlns="http://www.w3.org/2000/svg"><path d="m197.312 301.171h119.792v161.354h-119.792z" fill="#e5ecf1"/><path d="m313.926 301.171h-20.645l-14.937 109.541c-2.096 15.368-10.739 29.076-23.702 37.592l-19.356 12.715-20.063-12.76c-13.32-8.472-22.234-22.38-24.367-38.021l-14.631-107.296c-80.641 11.773-142.568 81.207-142.568 165.115 0 7.763 6.294 14.057 14.057 14.057h419.041c7.763 0 14.057-6.294 14.057-14.057 0-92.168-74.718-166.886-166.886-166.886z" fill="#c2d0da"/><path d="m273.809 348.663h-33.15l-6.027 118.383h45.204z" fill="#586b76"/><path d="m273.809 348.663h-16.654l6.027 118.383h16.654z" fill="#465961"/><path d="m93.111 114.491 5.521 11.186c.958 1.941 2.81 3.287 4.952 3.598l12.345 1.794c5.395.784 7.549 7.414 3.645 11.219l-8.933 8.707c-1.55 1.511-2.258 3.688-1.892 5.822l2.109 12.295c.922 5.373-4.718 9.471-9.543 6.934l-11.042-5.805c-1.916-1.007-4.205-1.007-6.121 0l-11.042 5.805c-4.825 2.537-10.465-1.561-9.543-6.934l2.109-12.295c.366-2.134-.341-4.311-1.892-5.822l-8.933-8.707c-3.904-3.805-1.75-10.435 3.645-11.219l12.345-1.794c2.142-.311 3.994-1.657 4.952-3.598l5.521-11.186c2.413-4.888 9.384-4.888 11.797 0z" fill="#fbbe66"/><g fill="#fcb143"><path d="m119.574 142.289c3.904-3.805 1.75-10.435-3.645-11.219l-5.347-.777c-.132.153-.269.304-.419.45l-8.933 8.707c-1.55 1.511-2.258 3.688-1.892 5.822l2.109 12.295c.922 5.373-4.718 9.471-9.543 6.934l-11.042-5.805c-1.916-1.007-4.205-1.007-6.121 0l-10.318 5.424-.856 4.993c-.922 5.373 4.718 9.471 9.543 6.934l11.042-5.805c1.916-1.007 4.205-1.007 6.121 0l11.042 5.805c4.825 2.537 10.465-1.561 9.543-6.934l-2.109-12.295c-.366-2.134.341-4.311 1.892-5.822z"/><path d="m31.726 204.242 3.317 6.722c.576 1.166 1.689 1.975 2.976 2.162l7.418 1.078c3.242.471 4.536 4.455 2.19 6.741l-5.368 5.232c-.931.908-1.357 2.216-1.137 3.498l1.267 7.388c.554 3.229-2.835 5.691-5.735 4.166l-6.635-3.488c-1.151-.605-2.527-.605-3.678 0l-6.635 3.488c-2.899 1.524-6.288-.938-5.735-4.166l1.267-7.388c.22-1.282-.205-2.59-1.137-3.498l-5.368-5.232c-2.346-2.287-1.051-6.27 2.19-6.741l7.418-1.078c1.287-.187 2.4-.996 2.976-2.162l3.317-6.722c1.453-2.938 5.642-2.938 7.092 0z"/><path d="m47.627 220.945c2.346-2.287 1.051-6.27-2.19-6.741l-3.213-.467c-.079.092-.162.183-.252.27l-5.368 5.232c-.931.908-1.357 2.216-1.137 3.498l1.267 7.388c.554 3.229-2.835 5.691-5.735 4.166l-6.635-3.488c-1.151-.605-2.527-.605-3.678 0l-6.2 3.26-.515 3c-.554 3.229 2.835 5.691 5.735 4.166l6.635-3.488c1.151-.605 2.527-.605 3.678 0l6.635 3.488c2.899 1.524 6.288-.938 5.735-4.166l-1.267-7.388c-.22-1.282.205-2.59 1.137-3.498z"/></g><path d="m246.962 364.021-15.404-15.404c-5.673-5.673-5.673-14.871 0-20.544l15.404-15.404c5.673-5.673 14.871-5.673 20.544 0l15.404 15.404c5.673 5.673 5.673 14.871 0 20.544l-15.404 15.404c-5.673 5.673-14.871 5.673-20.544 0z" fill="#586b76"/><path d="m282.863 328.026-5.568-5.568c-.633 2.424-1.885 4.721-3.785 6.621l-15.31 15.31c-5.699 5.699-14.938 5.699-20.637 0l-9.743-9.742c-1.266 4.848-.014 10.218 3.785 14.017l15.311 15.311c5.699 5.699 14.938 5.699 20.637 0l15.311-15.311c5.698-5.7 5.698-14.939-.001-20.638z" fill="#465961"/><path d="m315.88 301.196-14.934 109.516c-2.096 15.368-10.739 29.076-23.702 37.592l-19.356 12.715-20.063-12.76c-13.32-8.472-22.234-22.38-24.367-38.021l-14.869-109.041c-91.267 1.049-164.932 75.346-164.932 166.861 0 7.763 6.294 14.057 14.057 14.057h419.041c7.763 0 14.057-6.294 14.057-14.057 0-91.516-73.666-165.813-164.932-166.862z" fill="#586b76"/><path d="m315.88 301.196-1.537 11.273c62.301 24.205 106.469 84.73 106.469 155.588 0 7.763-6.293 14.057-14.057 14.057h60c7.763 0 14.057-6.294 14.057-14.057 0-91.515-73.666-165.812-164.932-166.861z" fill="#465961"/><path d="m323.333 29.974c-1.382-.343-2.82.322-3.44 1.604-6.702 13.845-20.881 23.396-37.295 23.396h-64.73c-29.837.001-54.025 24.19-54.025 54.027v54.002h188.091v-34.675c0-8.427 2.041-16.702 5.753-24.267 3.42-6.97 5.344-14.806 5.344-23.095 0-24.716-16.771-45.295-39.698-50.992z" fill="#fcb143"/><path d="m323.333 29.974c-1.382-.343-2.82.323-3.44 1.604-1.148 2.371-2.529 4.604-4.089 6.697 13.23 9.519 21.779 25.049 21.779 42.691 0 8.289-1.924 16.125-5.344 23.095-3.712 7.566-5.753 15.84-5.753 24.267v34.675h25.448v-34.675c0-8.427 2.041-16.702 5.753-24.267 3.42-6.97 5.344-14.806 5.344-23.095 0-24.716-16.771-45.295-39.698-50.992z" fill="#fba615"/><path d="m353.711 180.707c-.608-.045-1.197-.057-1.777-.053v-31.444c0-17.295-14.021-31.316-31.316-31.316h-125.459c-17.295 0-31.316 14.021-31.316 31.316v31.491c-.988-.068-2.013-.073-3.085.006-15.337 1.129-27.198 9.811-25.858 28.006 1.312 17.813 14.789 38.126 29.744 37.915 6.025 46.128 45.474 81.748 93.245 81.748 47.784 0 87.241-35.637 93.25-81.783 14.422-.947 27.157-20.591 28.43-37.88 1.34-18.195-10.521-26.876-25.858-28.006z" fill="#ffcbbe"/><path d="m287.93 248.771c2.405 0 3.838 2.677 2.516 4.685-7.14 10.851-19.426 18.015-33.387 18.015s-26.247-7.164-33.387-18.015c-1.322-2.009.112-4.685 2.516-4.685z" fill="#fff"/><path d="m433.374 317.689 5.797 11.747c1.006 2.039 2.951 3.451 5.2 3.778l12.963 1.884c5.665.823 7.927 7.785 3.828 11.781l-9.38 9.143c-1.628 1.587-2.371 3.873-1.986 6.113l2.214 12.911c.968 5.642-4.954 9.945-10.021 7.281l-11.595-6.096c-2.012-1.058-4.416-1.058-6.428 0l-11.595 6.096c-5.067 2.664-10.989-1.639-10.021-7.281l2.214-12.911c.384-2.241-.359-4.527-1.986-6.113l-9.38-9.143c-4.099-3.996-1.837-10.958 3.828-11.781l12.963-1.884c2.25-.327 4.194-1.74 5.2-3.778l5.797-11.747c2.534-5.133 9.854-5.133 12.388 0z" fill="#fbbe66"/><path d="m461.163 346.879c4.099-3.996 1.837-10.958-3.828-11.781l-5.615-.816c-.138.161-.283.32-.44.473l-9.38 9.144c-1.628 1.587-2.371 3.873-1.986 6.113l2.214 12.911c.968 5.642-4.954 9.945-10.021 7.281l-11.595-6.096c-2.012-1.058-4.416-1.058-6.428 0l-10.835 5.696-.899 5.243c-.968 5.642 4.954 9.945 10.021 7.281l11.595-6.096c2.012-1.058 4.416-1.058 6.428 0l11.595 6.096c5.067 2.664 10.989-1.639 10.021-7.281l-2.214-12.911c-.384-2.24.359-4.527 1.986-6.113z" fill="#fcb143"/><path d="m353.711 180.707c-.608-.045-1.197-.057-1.777-.053v-31.444c0-17.295-14.021-31.316-31.316-31.316h-4.553c1.106 3.204 1.715 6.64 1.715 10.22v85.121c0 51.94-42.106 94.046-94.046 94.046-10.923 0-21.409-1.869-31.162-5.293 16.918 16.336 39.942 26.39 65.317 26.39 47.784 0 87.241-35.637 93.25-81.783 14.422-.947 27.157-20.591 28.43-37.88 1.34-18.197-10.521-26.878-25.858-28.008z" fill="#fdad9d"/><path d="m58.165 156.039-2.024 11.8c-.915 5.333 1.237 10.621 5.614 13.802 2.474 1.797 5.368 2.711 8.281 2.711 2.243 0 4.497-.542 6.58-1.636l10.596-5.572 10.596 5.572c4.79 2.516 10.483 2.106 14.861-1.074 4.377-3.18 6.529-8.469 5.614-13.803l-2.024-11.799 8.573-8.357c3.874-3.777 5.242-9.32 3.57-14.466-1.672-5.145-6.037-8.825-11.391-9.603l-11.848-1.722-5.298-10.736c-2.395-4.852-7.244-7.866-12.654-7.866-5.411 0-10.259 3.014-12.654 7.866l-5.298 10.736-11.847 1.722c-5.355.778-9.72 4.458-11.392 9.604-1.672 5.145-.304 10.689 3.571 14.466zm13.758-19.308c4.598-.667 8.571-3.553 10.627-7.72l4.663-9.448 4.663 9.449c2.057 4.166 6.029 7.051 10.625 7.719l10.427 1.516-7.544 7.354c-3.327 3.243-4.844 7.913-4.059 12.492l1.782 10.384-9.325-4.903c-2.056-1.082-4.311-1.623-6.567-1.623-2.255 0-4.511.541-6.567 1.622l-9.325 4.903 1.781-10.384c.785-4.579-.732-9.249-4.058-12.491l-7.544-7.354z"/><path d="m33.15 247.899c3.898 2.047 8.533 1.716 12.096-.874 3.563-2.589 5.315-6.894 4.57-11.235l-.949-5.531 4.019-3.918c3.153-3.072 4.268-7.584 2.908-11.772-1.36-4.19-4.913-7.186-9.274-7.821l-5.553-.806-2.484-5.034c-1.949-3.95-5.896-6.403-10.3-6.403-4.405 0-8.351 2.453-10.301 6.403l-2.484 5.034-5.556.806c-4.359.635-7.911 3.631-9.271 7.821-1.36 4.188-.246 8.7 2.907 11.771l4.02 3.919-.949 5.532c-.745 4.341 1.007 8.646 4.57 11.234 2.013 1.463 4.369 2.205 6.74 2.205 1.825 0 3.661-.44 5.356-1.331l4.968-2.612zm-10.314-16.827-.21.111.04-.235c.639-3.728-.596-7.528-3.304-10.165l-.171-.167.238-.034c3.741-.544 6.973-2.893 8.647-6.283l.105-.214.105.215c1.673 3.389 4.906 5.738 8.649 6.282l.235.034-.169.165c-2.709 2.639-3.945 6.439-3.305 10.169l.04.233-.21-.111c-3.345-1.759-7.342-1.759-10.69 0z"/><path d="m459.616 373.126-2.03-11.838 9.036-8.809c4.043-3.941 5.472-9.726 3.727-15.096-1.744-5.371-6.299-9.212-11.889-10.025l-12.487-1.814-5.585-11.317c-2.499-5.063-7.56-8.209-13.207-8.209s-10.708 3.146-13.207 8.209l-4.056 8.218c-21.43-14.153-45.611-23.336-70.968-26.984 9.285-12.261 15.887-26.71 18.816-42.535 16.032-5.181 27.993-25.678 29.317-43.659 1.395-18.94-9.07-32.137-27.615-35.428v-45.511c0-7.061 1.723-14.305 4.983-20.948 4.057-8.268 6.115-17.155 6.115-26.414 0-27.683-18.675-51.658-45.416-58.303-4.818-1.202-9.877 1.172-12.038 5.633-5.717 11.808-17.409 19.144-30.514 19.144h-64.731c-33.943.002-61.558 27.618-61.558 61.561v64.624c-19.355 2.892-30.351 16.261-28.923 35.643 1.394 18.924 14.286 39.666 30.7 44.053 2.949 15.59 9.468 29.832 18.602 41.951-85.404 11.691-150.565 85.238-150.565 172.785 0 11.905 9.685 21.591 21.591 21.591h303.293c4.161 0 7.534-3.373 7.534-7.534s-3.373-7.534-7.534-7.534h-303.293c-3.597 0-6.523-2.926-6.523-6.524 0-83.542 64.943-153.119 148.067-158.934 9.419 8.632 20.446 15.492 32.528 20.112-3.675 8.148-2.194 18.072 4.491 24.758l6.249 6.248-3.534 69.417c-4.246-5.988-7.051-12.971-8.069-20.438l-8.328-61.071c-.562-4.122-4.36-7.008-8.483-6.447-4.123.562-7.009 4.361-6.447 8.484l8.328 61.071c2.437 17.875 12.566 33.679 27.788 43.36l20.063 12.76c1.235.786 2.639 1.177 4.043 1.177 1.441 0 2.882-.413 4.136-1.237l19.356-12.715c14.788-9.715 24.64-25.34 27.031-42.871l13.444-98.59c1.556-1.263 3.083-2.561 4.562-3.913 22.917 1.779 45.013 8.46 64.946 19.565-3.444 1.733-6.111 4.772-7.352 8.591-1.745 5.371-.317 11.155 3.727 15.096l9.036 8.809-2.132 12.436c-.955 5.566 1.29 11.086 5.859 14.406 2.582 1.876 5.602 2.829 8.643 2.829 2.341 0 4.694-.565 6.867-1.708l11.169-5.873 11.169 5.873c4.462 2.345 9.673 2.249 13.99-.158 2.308 4.038 4.44 8.16 6.377 12.366-1.512 2.423-1.644 5.586-.062 8.195l5.973 9.859c.463.765 1.046 1.409 1.698 1.95 4.577 14.996 6.954 30.676 6.954 46.596 0 3.596-2.926 6.523-6.523 6.523h-83.936c-4.161 0-7.534 3.373-7.534 7.534s3.373 7.534 7.534 7.534h83.936c11.905 0 21.591-9.686 21.591-21.592 0-33.335-9.438-65.742-27.294-93.714-.406-.637-.893-1.02-1.436-1.218zm-287.502-127.474c-.491-3.756-3.692-6.558-7.469-6.558-.076.001-.153.003-.231.002-9.608 0-20.889-15.831-22.001-30.936-1.123-15.247 9.656-19.259 18.894-19.939 4.538-.328 10.07-1.385 10.07-7.52v-31.491c0-13.114 10.668-23.782 23.782-23.782h5.953c4.161 0 7.534-3.373 7.534-7.534s-3.373-7.534-7.534-7.534h-5.953c-8.954 0-17.204 3.053-23.782 8.162v-9.522c0-25.635 20.856-46.491 46.49-46.493h64.73c17.357 0 33.55-9.405 42.263-24.252 18.204 6.048 30.637 23.14 30.637 42.71 0 6.939-1.539 13.592-4.573 19.777-2.868 5.845-4.804 12.072-5.78 18.364-6.693-5.463-15.232-8.747-24.525-8.747h-85.992c-4.161 0-7.534 3.373-7.534 7.534s3.373 7.534 7.534 7.534h85.992c13.114 0 23.782 10.668 23.782 23.782v31.444c0 5.414 4.35 7.259 8.757 7.566 9.241.681 20.021 4.693 18.898 19.94-1.081 14.689-11.886 30.29-21.409 30.915-3.59.236-6.513 2.977-6.977 6.545-5.585 42.884-42.462 75.222-85.78 75.222-43.303.002-80.178-32.323-85.776-75.189zm85.775 90.259c6.87 0 13.594-.716 20.116-2.039 2.273 2.77 2.117 6.878-.469 9.463l-15.311 15.31c-2.752 2.754-7.23 2.754-9.983 0l-15.311-15.31c-2.658-2.658-2.741-6.921-.266-9.688 6.867 1.473 13.965 2.264 21.224 2.264zm-.068 116.136-14.415-9.167 3.545-69.631c3.208 1.681 6.745 2.523 10.283 2.522 3.537 0 7.075-.841 10.283-2.522l3.568 70.086zm35.66-42.354c-1.009 7.399-3.784 14.347-7.986 20.316l-3.552-69.77 6.249-6.249c6.565-6.566 8.12-16.258 4.693-24.321 4.219-1.556 8.31-3.389 12.255-5.47zm148.607-46.236 1.901 11.086-9.954-5.234c-2.146-1.128-4.5-1.692-6.855-1.692-2.353 0-4.708.564-6.854 1.692l-9.954 5.234 1.901-11.085c.82-4.779-.764-9.652-4.235-13.036l-8.054-7.851 11.131-1.617c4.797-.697 8.943-3.709 11.089-8.057l4.978-10.086 4.977 10.086c2.146 4.348 6.291 7.361 11.089 8.057l11.13 1.617-8.054 7.85c-3.473 3.386-5.056 8.258-4.236 13.036z"/><circle cx="217.978" cy="202.039" r="12.63"/><circle cx="297.783" cy="202.039" r="12.63"/><path d="m296.739 257.599c2.139-3.249 2.321-7.394.476-10.818-1.843-3.42-5.401-5.545-9.285-5.545h-61.741c-3.884 0-7.442 2.125-9.285 5.545-1.845 3.424-1.663 7.568.475 10.816 8.82 13.405 23.653 21.408 39.681 21.408s30.861-8.003 39.679-21.406zm-39.68 6.338c-7.768 0-15.127-2.757-20.898-7.632h41.797c-5.771 4.876-13.13 7.632-20.899 7.632z"/><path d="m511.794 326.124c-.98-4.207-5.182-6.821-9.392-5.843l-11.227 2.615c-4.207.98-6.822 5.184-5.843 9.391.841 3.61 4.057 6.049 7.611 6.049.587 0 1.184-.067 1.781-.206l11.227-2.615c4.207-.98 6.823-5.184 5.843-9.391z"/><path d="m461.883 303.444c1.383.997 2.982 1.478 4.567 1.478 2.428 0 4.822-1.128 6.351-3.249l6.741-9.35c2.526-3.503 1.733-8.391-1.771-10.918-3.504-2.526-8.392-1.733-10.918 1.771l-6.741 9.35c-2.526 3.503-1.733 8.391 1.771 10.918z"/><path d="m502.664 368.697-10.732-4.206c-4.021-1.574-8.559.407-10.135 4.429-1.576 4.021.406 8.559 4.428 10.136l10.732 4.206c.937.367 1.902.541 2.851.541 3.124 0 6.075-1.885 7.284-4.97 1.577-4.022-.406-8.56-4.428-10.136z"/><path d="m427.18 289.931c4.319 0 7.821-3.501 7.821-7.821v-11.955c0-4.32-3.502-7.821-7.821-7.821s-7.821 3.501-7.821 7.821v11.955c.001 4.32 3.502 7.821 7.821 7.821z"/><path d="m361.436 338.336c3.554 0 6.77-2.439 7.611-6.049.98-4.207-1.636-8.411-5.843-9.391l-11.227-2.615c-4.212-.978-8.412 1.636-9.392 5.843s1.636 8.411 5.843 9.391l11.227 2.615c.597.139 1.193.206 1.781.206z"/><path d="m379.012 422.148c1.267.767 2.664 1.132 4.045 1.132 2.645 0 5.226-1.342 6.697-3.77l5.973-9.859c2.238-3.693 1.058-8.503-2.637-10.741-3.694-2.235-8.504-1.057-10.742 2.637l-5.973 9.859c-2.238 3.694-1.057 8.504 2.637 10.742z"/><path d="m376.608 281.405c-3.504 2.527-4.297 7.415-1.771 10.918l6.741 9.35c1.529 2.12 3.922 3.249 6.351 3.249 1.585 0 3.183-.481 4.567-1.478 3.504-2.527 4.297-7.415 1.771-10.918l-6.741-9.35c-2.525-3.503-7.413-4.296-10.918-1.771z"/><path d="m362.447 364.491-10.733 4.206c-4.021 1.576-6.004 6.114-4.428 10.136 1.209 3.085 4.16 4.97 7.284 4.97.949 0 1.914-.174 2.851-.541l10.733-4.206c4.021-1.576 6.004-6.114 4.428-10.136s-6.113-6.003-10.135-4.429z"/><path d="m435.02 427.414v-11.955c0-4.32-3.502-7.821-7.821-7.821s-7.821 3.501-7.821 7.821v11.955c0 4.32 3.502 7.821 7.821 7.821s7.821-3.501 7.821-7.821z"/></svg>