<svg id="Layer_1" enable-background="new 0 0 512 512" height="512" viewBox="0 0 512 512" width="512" xmlns="http://www.w3.org/2000/svg"><g><g><path d="m454.8 465.5h-66.267v31c0 4.418 3.582 8 8 8h50.267c4.418 0 8-3.582 8-8z" fill="#f7f4f4"/><path d="m431.8 465.5v31c0 4.418-3.582 8-8 8h23c4.418 0 8-3.582 8-8v-31z" fill="#ded7eb"/><path d="m123.467 465.5h-66.267v31c0 4.418 3.582 8 8 8h50.267c4.418 0 8-3.582 8-8z" fill="#f7f4f4"/><path d="m100.467 465.5v31c0 4.418-3.582 8-8 8h23c4.418 0 8-3.582 8-8v-31z" fill="#ded7eb"/><g><path d="m355.966 222.866c8.836 0 16-7.163 16-16v-183.366c0-8.836-7.164-16-16-16h-66.833l-33.133 14.7-33.133-14.7h-66.833c-8.837 0-16 7.164-16 16v183.366c0 8.837 7.163 16 16 16v5.167l83.967-5.167h31.999l83.4 5.167z" fill="#d2ac87"/><path d="m355.966 7.5h-23c8.837 0 16 7.164 16 16v183.366c0 8.837-7.163 16-16 16l-.566 5.167h23l.566-5.167c8.837 0 16-7.163 16-16v-183.366c0-8.836-7.163-16-16-16z" fill="#c8947b"/><path d="m277.145 72.881-17.441-8.72c-2.332-1.166-5.077-1.166-7.409 0l-17.441 8.72c-5.508 2.754-11.988-1.251-11.988-7.409v-57.972h66.266v57.973c.001 6.157-6.479 10.162-11.987 7.408z" fill="#465e7b"/><path d="m264 123.466h66.833c4.418 0 8 3.582 8 8v50.266c0 4.418-3.582 8-8 8h-66.833c-4.418 0-8-3.582-8-8v-50.266c0-4.418 3.582-8 8-8z" fill="#f7f4f4"/><path d="m266.133 7.5v57.972c0 .626-.083 1.222-.209 1.798l11.221 5.611c5.508 2.754 11.988-1.251 11.988-7.409v-57.972z" fill="#3a4e65"/><path d="m330.833 123.466h-23c4.418 0 8 3.582 8 8v50.267c0 4.418-3.582 8-8 8h23c4.418 0 8-3.582 8-8v-50.267c0-4.418-3.582-8-8-8z" fill="#ded7eb"/></g><g><path d="m240 438.233c8.837 0 16-7.163 16-16v-183.366c0-8.837-7.163-16-16-16h-66.833l-33.133 14.7-33.133-14.7h-66.834c-8.837 0-16 7.163-16 16v183.366c0 8.837 7.163 16 16 16v5.167h199.366z" fill="#d2ac87"/><path d="m240 222.867h-23c8.837 0 16 7.163 16 16v183.366c0 8.837-7.163 16-16 16l-.566 5.167h23l.566-5.167c8.837 0 16-7.163 16-16v-183.366c0-8.837-7.164-16-16-16z" fill="#c8947b"/><path d="m161.179 288.248-17.441-8.721c-2.332-1.166-5.077-1.166-7.409 0l-17.441 8.721c-5.508 2.754-11.988-1.251-11.988-7.409v-57.972h66.267v57.972c0 6.158-6.481 10.163-11.988 7.409z" fill="#465e7b"/><path d="m148.033 338.833h66.833c4.418 0 8 3.582 8 8v50.267c0 4.418-3.582 8-8 8h-66.833c-4.418 0-8-3.582-8-8v-50.266c0-4.419 3.582-8.001 8-8.001z" fill="#f7f4f4"/><path d="m150.167 222.867v57.972c0 .626-.083 1.222-.209 1.798l11.221 5.611c5.507 2.754 11.988-1.251 11.988-7.409v-57.972z" fill="#3a4e65"/><path d="m214.866 338.833h-23c4.418 0 8 3.582 8 8v50.267c0 4.418-3.582 8-8 8h23c4.418 0 8-3.582 8-8v-50.267c0-4.418-3.581-8-8-8z" fill="#ded7eb"/></g><g><path d="m471.933 438.233c8.836 0 16-7.163 16-16v-183.366c0-8.837-7.164-16-16-16h-66.833l-33.133 14.7-33.133-14.7h-66.834c-8.837 0-16 7.163-16 16v183.366c0 8.837 7.163 16 16 16v5.167h199.366z" fill="#d2ac87"/><path d="m471.933 222.867h-23c8.837 0 16 7.163 16 16v183.366c0 8.837-7.163 16-16 16l-.566 5.167h23l.566-5.167c8.837 0 16-7.163 16-16v-183.366c0-8.837-7.164-16-16-16z" fill="#c8947b"/><path d="m393.112 288.248-17.441-8.721c-2.332-1.166-5.077-1.166-7.409 0l-17.441 8.721c-5.508 2.754-11.988-1.251-11.988-7.409v-57.972h66.267v57.972c0 6.158-6.481 10.163-11.988 7.409z" fill="#465e7b"/><path d="m379.966 338.833h66.833c4.418 0 8 3.582 8 8v50.267c0 4.418-3.582 8-8 8h-66.833c-4.418 0-8-3.582-8-8v-50.266c0-4.419 3.582-8.001 8-8.001z" fill="#f7f4f4"/><path d="m382.1 222.867v57.972c0 .626-.083 1.222-.209 1.798l11.221 5.611c5.508 2.754 11.988-1.251 11.988-7.409v-57.972z" fill="#3a4e65"/><path d="m446.799 338.833h-23c4.418 0 8 3.582 8 8v50.267c0 4.418-3.582 8-8 8h23c4.418 0 8-3.582 8-8v-50.267c0-4.418-3.581-8-8-8z" fill="#ded7eb"/></g><path d="m496.5 471.367h-481c-4.418 0-8-3.582-8-8v-17.133c0-4.418 3.582-8 8-8h481c4.418 0 8 3.582 8 8v17.133c0 4.418-3.582 8-8 8z" fill="#d0c5e2"/><path d="m496.5 438.233h-23c4.418 0 8 3.582 8 8v17.133c0 4.418-3.582 8-8 8h23c4.418 0 8-3.582 8-8v-17.133c0-4.418-3.582-8-8-8z" fill="#c0b3d8"/></g><g><path d="m496.5 430.733h-2.664c1.027-2.638 1.597-5.503 1.597-8.5v-183.366c0-12.958-10.542-23.5-23.5-23.5h-94.064c1.027-2.638 1.597-5.503 1.597-8.5v-183.367c0-12.958-10.542-23.5-23.5-23.5h-199.933c-12.958 0-23.5 10.542-23.5 23.5v183.367c0 2.997.57 5.862 1.597 8.5h-94.063c-12.958 0-23.5 10.542-23.5 23.5v183.367c0 2.997.57 5.862 1.597 8.5h-2.664c-8.547 0-15.5 6.953-15.5 15.5v17.133c0 8.547 6.953 15.5 15.5 15.5h34.2v17.633c0 8.547 6.953 15.5 15.5 15.5h50.267c8.547 0 15.5-6.953 15.5-15.5v-17.633h250.066v17.633c0 8.547 6.953 15.5 15.5 15.5h50.267c8.547 0 15.5-6.953 15.5-15.5v-17.633h34.2c8.547 0 15.5-6.953 15.5-15.5v-17.133c0-8.548-6.953-15.501-15.5-15.501zm-16.066-191.866v183.367c0 4.687-3.814 8.5-8.5 8.5h-199.934c-4.687 0-8.5-3.813-8.5-8.5v-183.367c0-4.687 3.813-8.5 8.5-8.5h59.333v50.473c0 5.51 2.798 10.529 7.485 13.426 2.552 1.577 5.414 2.372 8.289 2.372 2.406 0 4.821-.558 7.068-1.681l17.44-8.72c.22-.11.481-.109.701 0l17.441 8.72h-.001c4.929 2.464 10.669 2.205 15.356-.691 4.688-2.897 7.485-7.916 7.485-13.426v-50.473h59.334c4.689 0 8.503 3.813 8.503 8.5zm-33.134 225h-382.6v-18.133h382.6zm-49.7-183.028c0 .12 0 .437-.371.667-.369.228-.656.087-.762.034h-.001l-17.44-8.72c-4.418-2.209-9.696-2.21-14.118 0l-17.44 8.72c-.107.053-.391.195-.763-.035-.371-.229-.371-.546-.371-.666v-50.473h51.266zm-115.967-265.839v50.473c0 .12 0 .437-.371.667-.37.228-.656.087-.762.034h-.001l-17.44-8.72c-4.421-2.211-9.698-2.21-14.117 0l-17.441 8.72c-.106.054-.39.196-.762-.034s-.372-.547-.372-.667v-50.473zm-134.1 191.867v-183.367c0-4.687 3.813-8.5 8.5-8.5h59.334v50.473c0 5.51 2.798 10.529 7.485 13.426 2.551 1.576 5.414 2.372 8.288 2.372 2.407-.001 4.822-.558 7.068-1.681l17.441-8.72c.22-.11.482-.109.701.001l17.442 8.72h-.001c4.929 2.465 10.669 2.206 15.356-.69 4.688-2.897 7.485-7.916 7.485-13.426v-50.475h59.334c4.686 0 8.5 3.813 8.5 8.5v183.367c0 4.687-3.814 8.5-8.5 8.5h-17.134-66.832-32-66.834-17.133c-4.687 0-8.5-3.813-8.5-8.5zm18.133 23.5v50.473c0 .12 0 .436-.372.667-.371.229-.655.087-.762.034l-17.441-8.72c-4.42-2.211-9.698-2.21-14.117 0l-17.442 8.721c-.106.053-.391.194-.762-.034-.372-.23-.372-.547-.372-.667v-50.473h51.268zm-134.099 191.866v-183.366c0-4.687 3.813-8.5 8.5-8.5h59.333v50.473c0 5.51 2.798 10.529 7.486 13.426 2.551 1.577 5.414 2.372 8.288 2.372 2.407 0 4.822-.558 7.068-1.681l17.442-8.721c.219-.109.48-.109.7 0l17.441 8.72c4.929 2.464 10.669 2.205 15.357-.691 4.687-2.897 7.485-7.916 7.485-13.426v-50.473h59.333c4.687 0 8.5 3.813 8.5 8.5v183.367c0 4.687-3.813 8.5-8.5 8.5h-199.933c-4.687 0-8.5-3.813-8.5-8.5zm-16.567 41.134v-17.133c0-.276.224-.5.5-.5h34.2v18.133h-34.2c-.276 0-.5-.224-.5-.5zm100.967 33.133c0 .276-.224.5-.5.5h-50.267c-.276 0-.5-.224-.5-.5v-17.633h51.267zm331.333 0c0 .276-.225.5-.5.5h-50.267c-.275 0-.5-.224-.5-.5v-17.633h51.267zm49.7-33.133c0 .276-.225.5-.5.5h-34.2v-18.133h34.2c.275 0 .5.224.5.5z"/><path d="m206.3 197.233c4.142 0 7.5-3.358 7.5-7.5s-3.358-7.5-7.5-7.5h-33.133c-4.142 0-7.5 3.358-7.5 7.5s3.358 7.5 7.5 7.5z"/><path d="m173.166 164.1h33.134c4.142 0 7.5-3.358 7.5-7.5s-3.358-7.5-7.5-7.5h-33.133c-4.142 0-7.5 3.358-7.5 7.5-.001 4.142 3.357 7.5 7.499 7.5z"/><path d="m264 197.233h66.833c8.547 0 15.5-6.953 15.5-15.5v-50.267c0-8.547-6.953-15.5-15.5-15.5h-66.833c-8.547 0-15.5 6.953-15.5 15.5v50.267c0 8.547 6.953 15.5 15.5 15.5zm-.5-65.766c0-.276.225-.5.5-.5h66.833c.275 0 .5.224.5.5v50.267c0 .276-.225.5-.5.5h-66.833c-.275 0-.5-.224-.5-.5z"/><path d="m293.275 164.1h8.283c4.143 0 7.5-3.358 7.5-7.5s-3.357-7.5-7.5-7.5h-8.283c-4.143 0-7.5 3.358-7.5 7.5s3.358 7.5 7.5 7.5z"/><path d="m90.333 412.6c4.142 0 7.5-3.358 7.5-7.5s-3.358-7.5-7.5-7.5h-33.133c-4.142 0-7.5 3.358-7.5 7.5s3.358 7.5 7.5 7.5z"/><path d="m57.2 379.467h33.133c4.142 0 7.5-3.358 7.5-7.5s-3.358-7.5-7.5-7.5h-33.133c-4.142 0-7.5 3.358-7.5 7.5s3.358 7.5 7.5 7.5z"/><path d="m148.033 412.6h66.834c8.547 0 15.5-6.953 15.5-15.5v-50.267c0-8.547-6.953-15.5-15.5-15.5h-66.834c-8.547 0-15.5 6.953-15.5 15.5v50.267c0 8.547 6.953 15.5 15.5 15.5zm-.5-65.767c0-.276.224-.5.5-.5h66.834c.276 0 .5.224.5.5v50.267c0 .276-.224.5-.5.5h-66.834c-.276 0-.5-.224-.5-.5z"/><path d="m177.308 379.467h8.284c4.142 0 7.5-3.358 7.5-7.5s-3.358-7.5-7.5-7.5h-8.284c-4.142 0-7.5 3.358-7.5 7.5s3.358 7.5 7.5 7.5z"/><path d="m322.267 397.6h-33.134c-4.143 0-7.5 3.358-7.5 7.5s3.357 7.5 7.5 7.5h33.134c4.143 0 7.5-3.358 7.5-7.5s-3.358-7.5-7.5-7.5z"/><path d="m322.267 364.467h-33.134c-4.143 0-7.5 3.358-7.5 7.5s3.357 7.5 7.5 7.5h33.134c4.143 0 7.5-3.358 7.5-7.5s-3.358-7.5-7.5-7.5z"/><path d="m379.967 331.333c-8.547 0-15.5 6.953-15.5 15.5v50.267c0 8.547 6.953 15.5 15.5 15.5h66.833c8.547 0 15.5-6.953 15.5-15.5v-50.267c0-8.547-6.953-15.5-15.5-15.5zm67.333 15.5v50.267c0 .276-.225.5-.5.5h-66.833c-.275 0-.5-.224-.5-.5v-50.267c0-.276.225-.5.5-.5h66.833c.275 0 .5.225.5.5z"/><path d="m417.525 364.467h-8.283c-4.143 0-7.5 3.358-7.5 7.5s3.357 7.5 7.5 7.5h8.283c4.143 0 7.5-3.358 7.5-7.5s-3.357-7.5-7.5-7.5z"/></g></g></svg>